<mxfile host="Electron" modified="2023-12-17T18:48:46.681Z" agent="Mozilla/5.0 (Macintosh; Intel Mac OS X 10_15_7) AppleWebKit/537.36 (KHTML, like Gecko) draw.io/22.1.2 Chrome/114.0.5735.289 Electron/25.9.4 Safari/537.36" etag="18MG8Dhzm8b1xmkP-5Zq" version="22.1.2" type="device">
  <diagram id="C5RBs43oDa-KdzZeNtuy" name="Page-1">
    <mxGraphModel dx="1114" dy="804" grid="1" gridSize="10" guides="1" tooltips="1" connect="1" arrows="1" fold="1" page="1" pageScale="1" pageWidth="827" pageHeight="1169" math="0" shadow="0">
      <root>
        <mxCell id="WIyWlLk6GJQsqaUBKTNV-0" />
        <mxCell id="WIyWlLk6GJQsqaUBKTNV-1" parent="WIyWlLk6GJQsqaUBKTNV-0" />
        <mxCell id="1VoOGp__QeZdAw8RW908-10" style="edgeStyle=orthogonalEdgeStyle;rounded=0;orthogonalLoop=1;jettySize=auto;html=1;entryX=0.5;entryY=0;entryDx=0;entryDy=0;" edge="1" parent="WIyWlLk6GJQsqaUBKTNV-1" source="WIyWlLk6GJQsqaUBKTNV-3" target="1VoOGp__QeZdAw8RW908-8">
          <mxGeometry relative="1" as="geometry">
            <mxPoint x="280" y="360" as="targetPoint" />
          </mxGeometry>
        </mxCell>
        <mxCell id="WIyWlLk6GJQsqaUBKTNV-3" value="1. Make API Call&lt;br&gt;StoreId DisplayNbr" style="rounded=1;whiteSpace=wrap;html=1;fontSize=12;glass=0;strokeWidth=1;shadow=0;fillColor=#dae8fc;strokeColor=#6c8ebf;" parent="WIyWlLk6GJQsqaUBKTNV-1" vertex="1">
          <mxGeometry x="400" y="267" width="120" height="40" as="geometry" />
        </mxCell>
        <mxCell id="1VoOGp__QeZdAw8RW908-18" style="edgeStyle=orthogonalEdgeStyle;rounded=0;orthogonalLoop=1;jettySize=auto;html=1;entryX=0.5;entryY=0;entryDx=0;entryDy=0;" edge="1" parent="WIyWlLk6GJQsqaUBKTNV-1" source="1VoOGp__QeZdAw8RW908-8" target="1VoOGp__QeZdAw8RW908-11">
          <mxGeometry relative="1" as="geometry" />
        </mxCell>
        <mxCell id="1VoOGp__QeZdAw8RW908-8" value="2. Cache returned html and images to browser storage&lt;br&gt;(Local Storage and IndexedDb" style="rounded=1;whiteSpace=wrap;html=1;fontSize=12;glass=0;strokeWidth=1;shadow=0;fillColor=#dae8fc;strokeColor=#6c8ebf;" vertex="1" parent="WIyWlLk6GJQsqaUBKTNV-1">
          <mxGeometry x="400" y="341" width="120" height="85" as="geometry" />
        </mxCell>
        <mxCell id="1VoOGp__QeZdAw8RW908-55" style="edgeStyle=orthogonalEdgeStyle;rounded=0;orthogonalLoop=1;jettySize=auto;html=1;entryX=0.5;entryY=0;entryDx=0;entryDy=0;" edge="1" parent="WIyWlLk6GJQsqaUBKTNV-1" source="1VoOGp__QeZdAw8RW908-11" target="1VoOGp__QeZdAw8RW908-12">
          <mxGeometry relative="1" as="geometry" />
        </mxCell>
        <mxCell id="1VoOGp__QeZdAw8RW908-11" value="3. Retrieve html from LocalStorage and replace the img src links with images (Blob) stored from IndexedDb" style="rounded=1;whiteSpace=wrap;html=1;fontSize=12;glass=0;strokeWidth=1;shadow=0;fillColor=#dae8fc;strokeColor=#6c8ebf;" vertex="1" parent="WIyWlLk6GJQsqaUBKTNV-1">
          <mxGeometry x="400" y="459" width="120" height="110" as="geometry" />
        </mxCell>
        <mxCell id="1VoOGp__QeZdAw8RW908-56" style="edgeStyle=orthogonalEdgeStyle;rounded=0;orthogonalLoop=1;jettySize=auto;html=1;" edge="1" parent="WIyWlLk6GJQsqaUBKTNV-1" source="1VoOGp__QeZdAw8RW908-12">
          <mxGeometry relative="1" as="geometry">
            <mxPoint x="330" y="640" as="targetPoint" />
          </mxGeometry>
        </mxCell>
        <mxCell id="1VoOGp__QeZdAw8RW908-65" value="Yes" style="edgeLabel;html=1;align=center;verticalAlign=middle;resizable=0;points=[];" vertex="1" connectable="0" parent="1VoOGp__QeZdAw8RW908-56">
          <mxGeometry x="-0.1802" y="2" relative="1" as="geometry">
            <mxPoint as="offset" />
          </mxGeometry>
        </mxCell>
        <mxCell id="1VoOGp__QeZdAw8RW908-79" style="edgeStyle=orthogonalEdgeStyle;rounded=0;orthogonalLoop=1;jettySize=auto;html=1;entryX=0.5;entryY=0;entryDx=0;entryDy=0;" edge="1" parent="WIyWlLk6GJQsqaUBKTNV-1" source="1VoOGp__QeZdAw8RW908-12" target="1VoOGp__QeZdAw8RW908-57">
          <mxGeometry relative="1" as="geometry" />
        </mxCell>
        <mxCell id="1VoOGp__QeZdAw8RW908-82" value="No" style="edgeLabel;html=1;align=center;verticalAlign=middle;resizable=0;points=[];" vertex="1" connectable="0" parent="1VoOGp__QeZdAw8RW908-79">
          <mxGeometry x="-0.6522" relative="1" as="geometry">
            <mxPoint as="offset" />
          </mxGeometry>
        </mxCell>
        <mxCell id="1VoOGp__QeZdAw8RW908-12" value="Any Errors in steps 1/2/3?" style="rhombus;whiteSpace=wrap;html=1;shadow=0;fontFamily=Helvetica;fontSize=12;align=center;strokeWidth=1;spacing=6;spacingTop=-4;fillColor=#e1d5e7;strokeColor=#9673a6;" vertex="1" parent="WIyWlLk6GJQsqaUBKTNV-1">
          <mxGeometry x="410" y="600" width="100" height="80" as="geometry" />
        </mxCell>
        <mxCell id="1VoOGp__QeZdAw8RW908-43" style="edgeStyle=orthogonalEdgeStyle;rounded=0;orthogonalLoop=1;jettySize=auto;html=1;entryX=0.5;entryY=0;entryDx=0;entryDy=0;" edge="1" parent="WIyWlLk6GJQsqaUBKTNV-1" source="1VoOGp__QeZdAw8RW908-23" target="WIyWlLk6GJQsqaUBKTNV-3">
          <mxGeometry relative="1" as="geometry">
            <mxPoint x="460" y="260" as="targetPoint" />
          </mxGeometry>
        </mxCell>
        <mxCell id="1VoOGp__QeZdAw8RW908-23" value="Start &lt;br&gt;(Power on Display)" style="ellipse;whiteSpace=wrap;html=1;fillColor=#d5e8d4;strokeColor=#82b366;" vertex="1" parent="WIyWlLk6GJQsqaUBKTNV-1">
          <mxGeometry x="405" y="160" width="110" height="60" as="geometry" />
        </mxCell>
        <mxCell id="1VoOGp__QeZdAw8RW908-77" style="edgeStyle=orthogonalEdgeStyle;rounded=0;orthogonalLoop=1;jettySize=auto;html=1;entryX=0;entryY=0.5;entryDx=0;entryDy=0;" edge="1" parent="WIyWlLk6GJQsqaUBKTNV-1" source="1VoOGp__QeZdAw8RW908-33" target="WIyWlLk6GJQsqaUBKTNV-3">
          <mxGeometry relative="1" as="geometry">
            <Array as="points">
              <mxPoint x="280" y="287" />
            </Array>
          </mxGeometry>
        </mxCell>
        <mxCell id="1VoOGp__QeZdAw8RW908-33" value="Content defaults to Siren logo&lt;br style=&quot;border-color: var(--border-color);&quot;&gt;(MagicInfo renders the content package with default logo image)" style="rounded=1;whiteSpace=wrap;html=1;fontSize=12;glass=0;strokeWidth=1;shadow=0;fillColor=#f8cecc;strokeColor=#b85450;" vertex="1" parent="WIyWlLk6GJQsqaUBKTNV-1">
          <mxGeometry x="220" y="456.5" width="120" height="95" as="geometry" />
        </mxCell>
        <mxCell id="1VoOGp__QeZdAw8RW908-85" style="edgeStyle=orthogonalEdgeStyle;rounded=0;orthogonalLoop=1;jettySize=auto;html=1;entryX=0;entryY=0.5;entryDx=0;entryDy=0;" edge="1" parent="WIyWlLk6GJQsqaUBKTNV-1" source="1VoOGp__QeZdAw8RW908-51" target="WIyWlLk6GJQsqaUBKTNV-3">
          <mxGeometry relative="1" as="geometry">
            <Array as="points">
              <mxPoint x="620" y="940" />
              <mxPoint x="180" y="940" />
              <mxPoint x="180" y="287" />
            </Array>
          </mxGeometry>
        </mxCell>
        <mxCell id="1VoOGp__QeZdAw8RW908-51" value="Do nothing, wait for interval to call again" style="rounded=1;whiteSpace=wrap;html=1;fontSize=12;glass=0;strokeWidth=1;shadow=0;fillColor=#dae8fc;strokeColor=#6c8ebf;" vertex="1" parent="WIyWlLk6GJQsqaUBKTNV-1">
          <mxGeometry x="560" y="860" width="120" height="40" as="geometry" />
        </mxCell>
        <mxCell id="1VoOGp__QeZdAw8RW908-86" style="edgeStyle=orthogonalEdgeStyle;rounded=0;orthogonalLoop=1;jettySize=auto;html=1;entryX=0;entryY=0.5;entryDx=0;entryDy=0;" edge="1" parent="WIyWlLk6GJQsqaUBKTNV-1" source="1VoOGp__QeZdAw8RW908-52" target="WIyWlLk6GJQsqaUBKTNV-3">
          <mxGeometry relative="1" as="geometry">
            <Array as="points">
              <mxPoint x="300" y="940" />
              <mxPoint x="180" y="940" />
              <mxPoint x="180" y="287" />
            </Array>
          </mxGeometry>
        </mxCell>
        <mxCell id="1VoOGp__QeZdAw8RW908-87" value="Interval call" style="edgeLabel;html=1;align=center;verticalAlign=middle;resizable=0;points=[];" vertex="1" connectable="0" parent="1VoOGp__QeZdAw8RW908-86">
          <mxGeometry x="-0.1888" y="1" relative="1" as="geometry">
            <mxPoint as="offset" />
          </mxGeometry>
        </mxCell>
        <mxCell id="1VoOGp__QeZdAw8RW908-52" value="Swap content in div tag for updated menus" style="rounded=1;whiteSpace=wrap;html=1;fontSize=12;glass=0;strokeWidth=1;shadow=0;fillColor=#dae8fc;strokeColor=#6c8ebf;" vertex="1" parent="WIyWlLk6GJQsqaUBKTNV-1">
          <mxGeometry x="240" y="860" width="120" height="40" as="geometry" />
        </mxCell>
        <mxCell id="1VoOGp__QeZdAw8RW908-63" style="edgeStyle=orthogonalEdgeStyle;rounded=0;orthogonalLoop=1;jettySize=auto;html=1;entryX=0.5;entryY=1;entryDx=0;entryDy=0;" edge="1" parent="WIyWlLk6GJQsqaUBKTNV-1" source="1VoOGp__QeZdAw8RW908-53" target="1VoOGp__QeZdAw8RW908-33">
          <mxGeometry relative="1" as="geometry">
            <mxPoint x="280" y="570" as="targetPoint" />
          </mxGeometry>
        </mxCell>
        <mxCell id="1VoOGp__QeZdAw8RW908-69" value="No" style="edgeLabel;html=1;align=center;verticalAlign=middle;resizable=0;points=[];" vertex="1" connectable="0" parent="1VoOGp__QeZdAw8RW908-63">
          <mxGeometry x="-0.2771" y="1" relative="1" as="geometry">
            <mxPoint as="offset" />
          </mxGeometry>
        </mxCell>
        <mxCell id="1VoOGp__QeZdAw8RW908-83" style="edgeStyle=orthogonalEdgeStyle;rounded=0;orthogonalLoop=1;jettySize=auto;html=1;entryX=0;entryY=0.5;entryDx=0;entryDy=0;" edge="1" parent="WIyWlLk6GJQsqaUBKTNV-1" source="1VoOGp__QeZdAw8RW908-53" target="1VoOGp__QeZdAw8RW908-57">
          <mxGeometry relative="1" as="geometry">
            <Array as="points">
              <mxPoint x="280" y="759" />
            </Array>
          </mxGeometry>
        </mxCell>
        <mxCell id="1VoOGp__QeZdAw8RW908-84" value="Yes" style="edgeLabel;html=1;align=center;verticalAlign=middle;resizable=0;points=[];" vertex="1" connectable="0" parent="1VoOGp__QeZdAw8RW908-83">
          <mxGeometry x="-0.3367" y="2" relative="1" as="geometry">
            <mxPoint as="offset" />
          </mxGeometry>
        </mxCell>
        <mxCell id="1VoOGp__QeZdAw8RW908-53" value="Any cached information found?" style="rhombus;whiteSpace=wrap;html=1;shadow=0;fontFamily=Helvetica;fontSize=12;align=center;strokeWidth=1;spacing=6;spacingTop=-4;fillColor=#e1d5e7;strokeColor=#9673a6;" vertex="1" parent="WIyWlLk6GJQsqaUBKTNV-1">
          <mxGeometry x="230" y="600" width="100" height="80" as="geometry" />
        </mxCell>
        <mxCell id="1VoOGp__QeZdAw8RW908-64" style="edgeStyle=orthogonalEdgeStyle;rounded=0;orthogonalLoop=1;jettySize=auto;html=1;entryX=0.5;entryY=0;entryDx=0;entryDy=0;" edge="1" parent="WIyWlLk6GJQsqaUBKTNV-1" source="1VoOGp__QeZdAw8RW908-57" target="1VoOGp__QeZdAw8RW908-59">
          <mxGeometry relative="1" as="geometry" />
        </mxCell>
        <mxCell id="1VoOGp__QeZdAw8RW908-57" value="Check if the updated html and links (img src replaced links) has change since last attempt" style="rounded=1;whiteSpace=wrap;html=1;fontSize=12;glass=0;strokeWidth=1;shadow=0;fillColor=#dae8fc;strokeColor=#6c8ebf;" vertex="1" parent="WIyWlLk6GJQsqaUBKTNV-1">
          <mxGeometry x="400" y="714" width="120" height="90" as="geometry" />
        </mxCell>
        <mxCell id="1VoOGp__QeZdAw8RW908-70" style="edgeStyle=orthogonalEdgeStyle;rounded=0;orthogonalLoop=1;jettySize=auto;html=1;entryX=0;entryY=0.5;entryDx=0;entryDy=0;" edge="1" parent="WIyWlLk6GJQsqaUBKTNV-1" source="1VoOGp__QeZdAw8RW908-59" target="1VoOGp__QeZdAw8RW908-51">
          <mxGeometry relative="1" as="geometry" />
        </mxCell>
        <mxCell id="1VoOGp__QeZdAw8RW908-72" value="No" style="edgeLabel;html=1;align=center;verticalAlign=middle;resizable=0;points=[];" vertex="1" connectable="0" parent="1VoOGp__QeZdAw8RW908-70">
          <mxGeometry x="-0.2" y="2" relative="1" as="geometry">
            <mxPoint as="offset" />
          </mxGeometry>
        </mxCell>
        <mxCell id="1VoOGp__QeZdAw8RW908-71" style="edgeStyle=orthogonalEdgeStyle;rounded=0;orthogonalLoop=1;jettySize=auto;html=1;entryX=1;entryY=0.5;entryDx=0;entryDy=0;" edge="1" parent="WIyWlLk6GJQsqaUBKTNV-1" source="1VoOGp__QeZdAw8RW908-59" target="1VoOGp__QeZdAw8RW908-52">
          <mxGeometry relative="1" as="geometry" />
        </mxCell>
        <mxCell id="1VoOGp__QeZdAw8RW908-74" value="Yes" style="edgeLabel;html=1;align=center;verticalAlign=middle;resizable=0;points=[];" vertex="1" connectable="0" parent="1VoOGp__QeZdAw8RW908-71">
          <mxGeometry x="-0.12" relative="1" as="geometry">
            <mxPoint as="offset" />
          </mxGeometry>
        </mxCell>
        <mxCell id="1VoOGp__QeZdAw8RW908-59" value="Any changes found?" style="rhombus;whiteSpace=wrap;html=1;shadow=0;fontFamily=Helvetica;fontSize=12;align=center;strokeWidth=1;spacing=6;spacingTop=-4;fillColor=#e1d5e7;strokeColor=#9673a6;" vertex="1" parent="WIyWlLk6GJQsqaUBKTNV-1">
          <mxGeometry x="410" y="840" width="100" height="80" as="geometry" />
        </mxCell>
        <mxCell id="1VoOGp__QeZdAw8RW908-88" value="If the API call fails either in a non 200 response or lost network connectivity, the code will error which will then look for cached content to render." style="shape=callout;whiteSpace=wrap;html=1;perimeter=calloutPerimeter;position2=0;" vertex="1" parent="WIyWlLk6GJQsqaUBKTNV-1">
          <mxGeometry x="540" y="510" width="180" height="120" as="geometry" />
        </mxCell>
      </root>
    </mxGraphModel>
  </diagram>
</mxfile>
